<svg id="efjbodvp6vge1" xmlns="http://www.w3.org/2000/svg" xmlns:xlink="http://www.w3.org/1999/xlink" viewBox="0 0 3 3" shape-rendering="geometricPrecision" text-rendering="geometricPrecision"><style><![CDATA[#efjbodvp6vge3_ts {animation: efjbodvp6vge3_ts__ts 2000ms linear 1 normal forwards}@keyframes efjbodvp6vge3_ts__ts { 0% {transform: translate(-0.508880px,-0.680455px) skewX(1deg) skewY(1deg) scale(1,1)} 100% {transform: translate(-0.508880px,-0.680455px) skewX(1deg) skewY(1deg) scale(1,1)} }]]></style><g id="efjbodvp6vge2" transform="matrix(1 0 0 1 0.79449999500000 0.50112499500000)" clip-rule="evenodd"><g id="efjbodvp6vge3_ts" transform="translate(-0.508880,-0.680455) skewX(1) skewY(1) scale(1,1)"><circle id="efjbodvp6vge3" r="0.500000" transform="translate(1,1)" opacity="0" clip-rule="evenodd" fill="rgb(255,255,255)" fill-rule="evenodd" stroke="none" stroke-width="1"/></g><g id="efjbodvp6vge4" clip-rule="evenodd"><path id="efjbodvp6vge5" d="M1.310000,0.878000L1.307000,0.878000C1.252000,0.878000,1.205000,0.925000,1.205000,0.986000L1.205000,1.070000C1.205000,1.087000,1.191000,1.100000,1.174000,1.100000C1.158000,1.100000,1.144000,1.087000,1.144000,1.070000L1.144000,0.914000C1.144000,0.854000,1.100000,0.804000,1.044000,0.804000C0.988000,0.804000,0.944000,0.854000,0.944000,0.914000L0.944000,1.079000C0.944000,1.096000,0.931000,1.109000,0.914000,1.109000C0.897000,1.109000,0.884000,1.096000,0.884000,1.079000L0.884000,0.869000C0.884000,0.808000,0.838000,0.760000,0.782000,0.760000L0.779000,0.760000C0.725000,0.760000,0.680000,0.806000,0.680000,0.865000L0.680000,1.101000C0.680000,1.118000,0.666000,1.131000,0.649000,1.131000C0.632000,1.131000,0.619000,1.118000,0.619000,1.101000L0.619000,0.871000C0.619000,0.871000,0.619000,0.870000,0.619000,0.869000C0.619000,0.867000,0.619000,0.865000,0.619000,0.864000L0.619000,0.327000C0.619000,0.266000,0.573000,0.217000,0.517000,0.217000C0.462000,0.217000,0.416000,0.266000,0.416000,0.327000L0.415000,1.217000C0.415000,1.230000,0.407000,1.241000,0.395000,1.245000C0.383000,1.250000,0.370000,1.246000,0.361000,1.236000L0.255000,1.107000C0.227000,1.072000,0.186000,1.050000,0.141000,1.046000C0.097000,1.043000,0.054000,1.059000,0.022000,1.089000C0.022000,1.089000,0.021000,1.090000,0.021000,1.090000L0,1.107000L0.369000,1.816000C0.427000,1.928000,0.537000,1.998000,0.656000,1.998000L1.082000,1.998000C1.263000,1.998000,1.411000,1.838000,1.411000,1.643000C1.411000,1.539000,1.411000,1.462000,1.411000,1.399000C1.411000,1.232000,1.411000,1.170000,1.411000,0.986000C1.411000,0.926000,1.366000,0.878000,1.310000,0.878000Z" clip-rule="evenodd" fill="rgb(180,51,147)" stroke="none" stroke-width="1"/><path id="efjbodvp6vge6" d="M0.241000,0.337000C0.258000,0.337000,0.271000,0.324000,0.271000,0.307000C0.271000,0.219000,0.318000,0.138000,0.394000,0.094000C0.469000,0.050000,0.563000,0.050000,0.639000,0.094000C0.715000,0.138000,0.762000,0.219000,0.761000,0.307000C0.761000,0.324000,0.775000,0.337000,0.792000,0.337000C0.808000,0.337000,0.822000,0.324000,0.822000,0.307000C0.822000,0.197000,0.764000,0.096000,0.669000,0.041000C0.575000,-0.014000,0.458000,-0.014000,0.363000,0.041000C0.268000,0.096000,0.210000,0.197000,0.211000,0.307000C0.211000,0.324000,0.224000,0.337000,0.241000,0.337000Z" clip-rule="evenodd" fill="rgb(180,51,147)" stroke="none" stroke-width="1"/></g></g></svg>