<?xml version="1.0" encoding="UTF-8"?>
<!DOCTYPE svg PUBLIC "-//W3C//DTD SVG 1.1//EN" "http://www.w3.org/Graphics/SVG/1.1/DTD/svg11.dtd">
<!-- Creator: CorelDRAW 2017 -->
<svg xmlns="http://www.w3.org/2000/svg" xml:space="preserve" width="18px" height="25px" version="1.1" style="shape-rendering:geometricPrecision; text-rendering:geometricPrecision; image-rendering:optimizeQuality; fill-rule:evenodd; clip-rule:evenodd"
viewBox="0 0 1.411 1.997"
 xmlns:xlink="http://www.w3.org/1999/xlink">
 <defs>
  <style type="text/css">
   <![CDATA[
    .fil0 {fill:#B43393;fill-rule:nonzero}
   ]]>
  </style>
 </defs>
 <g id="圖層_x0020_1">
  <metadata id="CorelCorpID_0Corel-Layer"/>
  <g id="_2831439620528">
   <path class="fil0" d="M1.31 0.878l-0.003 0c-0.055,0 -0.102,0.047 -0.102,0.108l0 0.084c0,0.017 -0.014,0.03 -0.031,0.03 -0.016,0 -0.03,-0.013 -0.03,-0.03l0 -0.156c0,-0.06 -0.044,-0.11 -0.1,-0.11 -0.056,0 -0.1,0.05 -0.1,0.11l0 0.165c0,0.017 -0.013,0.03 -0.03,0.03 -0.017,0 -0.03,-0.013 -0.03,-0.03l0 -0.21c0,-0.061 -0.046,-0.109 -0.102,-0.109l-0.003 0c-0.054,0 -0.099,0.046 -0.099,0.104l0 0.237c0,0.017 -0.014,0.03 -0.031,0.03 -0.017,0 -0.03,-0.013 -0.03,-0.03l0 -0.23c0,0 0,-0.001 0,-0.002 0,-0.002 0,-0.004 0,-0.006l0 -0.536c0,-0.061 -0.046,-0.11 -0.102,-0.11 -0.055,0 -0.101,0.049 -0.101,0.11l-0.001 0.89c0,0.013 -0.008,0.024 -0.02,0.028 -0.012,0.005 -0.025,0.001 -0.034,-0.009l-0.106 -0.129c-0.028,-0.035 -0.069,-0.057 -0.114,-0.061 -0.044,-0.003 -0.087,0.013 -0.119,0.043 0,0 -0.001,0.001 -0.001,0.001l-0.021 0.017 0.369 0.709c0.058,0.111 0.168,0.181 0.287,0.181l0.426 0c0.181,0 0.329,-0.159 0.329,-0.354 0,-0.104 0,-0.181 0,-0.244 0,-0.167 0,-0.229 0,-0.413 0,-0.06 -0.045,-0.108 -0.101,-0.108z"/>
   <path class="fil0" d="M0.241 0.337c0.017,0 0.03,-0.013 0.03,-0.03 0,-0.088 0.047,-0.169 0.123,-0.213 0.075,-0.044 0.169,-0.044 0.245,0 0.076,0.044 0.123,0.125 0.122,0.213 0,0.017 0.014,0.03 0.031,0.03 0.016,0 0.03,-0.013 0.03,-0.03 0,-0.11 -0.058,-0.211 -0.153,-0.266 -0.094,-0.055 -0.211,-0.055 -0.306,0 -0.095,0.055 -0.153,0.156 -0.152,0.266 0,0.017 0.013,0.03 0.03,0.03z"/>
  </g>
 </g>
</svg>
