<?xml version="1.0" encoding="UTF-8"?>
<!DOCTYPE svg PUBLIC "-//W3C//DTD SVG 1.1//EN" "http://www.w3.org/Graphics/SVG/1.1/DTD/svg11.dtd">
<!-- Creator: CorelDRAW 2017 -->
<svg xmlns="http://www.w3.org/2000/svg" xml:space="preserve" width="375px" height="69px" version="1.1" style="shape-rendering:geometricPrecision; text-rendering:geometricPrecision; image-rendering:optimizeQuality; fill-rule:evenodd; clip-rule:evenodd"
viewBox="0 0 375 68.619"
 xmlns:xlink="http://www.w3.org/1999/xlink">
 <defs>
  <style type="text/css">
   <![CDATA[
    .fil6 {fill:url(#id0)}
    .fil8 {fill:url(#id1)}
    .fil0 {fill:url(#id2)}
    .fil1 {fill:url(#id3)}
    .fil3 {fill:url(#id4)}
    .fil7 {fill:url(#id5)}
    .fil4 {fill:url(#id6)}
    .fil5 {fill:url(#id7)}
    .fil2 {fill:url(#id8)}
   ]]>
  </style>
  <linearGradient id="id0" gradientUnits="userSpaceOnUse" x1="219.284" y1="18.327" x2="162.654" y2="50.304">
   <stop offset="0" style="stop-opacity:1; stop-color:#ECA199"/>
   <stop offset="0.0588235" style="stop-opacity:1; stop-color:#CF1400"/>
   <stop offset="0.890196" style="stop-opacity:1; stop-color:#CF1400"/>
   <stop offset="1" style="stop-opacity:1; stop-color:#7F1300"/>
  </linearGradient>
  <linearGradient id="id1" gradientUnits="userSpaceOnUse" x1="224.457" y1="33.083" x2="169.265" y2="61.735">
   <stop offset="0" style="stop-opacity:1; stop-color:#FDF2B1"/>
   <stop offset="0.00784314" style="stop-opacity:1; stop-color:#FBBF5B"/>
   <stop offset="0.0196078" style="stop-opacity:1; stop-color:#FDF2B1"/>
   <stop offset="0.168627" style="stop-opacity:1; stop-color:#F9D405"/>
   <stop offset="0.901961" style="stop-opacity:1; stop-color:#FFEE00"/>
   <stop offset="1" style="stop-opacity:1; stop-color:#F98C05"/>
  </linearGradient>
  <linearGradient id="id2" gradientUnits="userSpaceOnUse" x1="396.866" y1="66.885" x2="176.493" y2="37.978">
   <stop offset="0" style="stop-opacity:1; stop-color:#FFEE00"/>
   <stop offset="0.74902" style="stop-opacity:1; stop-color:#FAD904"/>
   <stop offset="1" style="stop-opacity:1; stop-color:#E98A13"/>
  </linearGradient>
  <linearGradient id="id3" gradientUnits="userSpaceOnUse" x1="163.138" y1="44.813" x2="-17.3" y2="24.553">
   <stop offset="0" style="stop-opacity:1; stop-color:#E98A13"/>
   <stop offset="0.25098" style="stop-opacity:1; stop-color:#FAD904"/>
   <stop offset="1" style="stop-opacity:1; stop-color:#FFEE00"/>
  </linearGradient>
  <linearGradient id="id4" gradientUnits="userSpaceOnUse" x1="205.42" y1="30.054" x2="-14.962" y2="0.955">
   <stop offset="0" style="stop-opacity:1; stop-color:black"/>
   <stop offset="0.0509804" style="stop-opacity:1; stop-color:black"/>
   <stop offset="1" style="stop-opacity:1; stop-color:black"/>
  </linearGradient>
  <linearGradient id="id5" gradientUnits="userSpaceOnUse" x1="211.75" y1="5.741" x2="157.741" y2="36.543">
   <stop offset="0" style="stop-opacity:1; stop-color:#292929"/>
   <stop offset="0.0392157" style="stop-opacity:1; stop-color:#292929"/>
   <stop offset="0.121569" style="stop-opacity:1; stop-color:black"/>
   <stop offset="1" style="stop-opacity:1; stop-color:black"/>
  </linearGradient>
  <linearGradient id="id6" gradientUnits="userSpaceOnUse" x1="218.769" y1="20.798" x2="399.207" y2="44.919">
   <stop offset="0" style="stop-opacity:1; stop-color:black"/>
   <stop offset="0.0784314" style="stop-opacity:1; stop-color:black"/>
   <stop offset="1" style="stop-opacity:1; stop-color:black"/>
  </linearGradient>
  <linearGradient id="id7" gradientUnits="userSpaceOnUse" x1="210.271" y1="28.374" x2="398.397" y2="53.522">
   <stop offset="0" style="stop-opacity:1; stop-color:#7B1100"/>
   <stop offset="0.188235" style="stop-opacity:1; stop-color:#A51200"/>
   <stop offset="0.360784" style="stop-opacity:1; stop-color:#CF1400"/>
   <stop offset="0.509804" style="stop-opacity:1; stop-color:#CF1400"/>
   <stop offset="0.670588" style="stop-opacity:1; stop-color:#CF1400"/>
   <stop offset="1" style="stop-opacity:1; stop-color:#CF1400"/>
  </linearGradient>
  <linearGradient id="id8" gradientUnits="userSpaceOnUse" xlink:href="#id7" x1="208.257" y1="33.252" x2="-14.977" y2="3.739">
  </linearGradient>
 </defs>
 <g id="圖層_x0020_1">
  <metadata id="CorelCorpID_0Corel-Layer"/>
  <g id="_2830772694752">
   <path class="fil0" d="M375 40.437l0 -6.461c-10.907,-1.09 -25.038,-2.053 -41.966,-2.255l0 0c-0.67,-0.008 -1.343,-0.012 -2.025,-0.012l-0.101 0c-43.1,0 -111.408,14.942 -121.092,17.955l0 0 -1.628 -2.875c-8.976,5.014 -19.793,10.814 -28.56,14.794l0 0c-6.274,2.849 -7.595,5.497 -7.298,6.402l0 0c0.456,1.385 2.853,0.223 8.007,-0.857l0 0c9.863,-2.067 109.099,-29.403 152.039,-28.891l0 0c17.303,0.206 31.656,1.149 42.624,2.2z"/>
   <path class="fil1" d="M0 36l0 7.366c28.659,4.566 87.467,10.972 163.269,3.475l0 0 -6.947 -14.736c0,0 0.818,-0.489 2.267,-1.341l0 0 -5.116 -1.735 -67.642 8.084 -85.831 -1.113z"/>
   <path class="fil2" d="M49.075 36.622c-20.935,-0.25 -37.546,-1.576 -49.075,-2.87l0 0 0 5.176c12.971,1.806 31.764,3.74 53.968,4.004l0 0c41.83,0.499 91.676,-5.612 103.328,-8.761l0 0 -0.974 -2.066c0,0 45.061,-16.521 55.095,-22.125l0 0 -1.84 -9.347c-9.845,3.065 -117.561,36.501 -160.502,35.989l0 0z"/>
   <path class="fil3" d="M201.57 1.491c-9.864,2.067 -109.098,29.403 -152.039,28.891l0 0c-21.211,-0.253 -37.985,-1.612 -49.531,-2.922l0 0 0 6.283c11.512,1.281 27.993,2.582 48.703,2.829l0 0c42.941,0.512 113.37,-14.858 123.215,-17.922l0 0 1.801 3.179c8.976,-5.013 19.793,-10.813 28.56,-14.793l0 0c6.275,-2.849 7.595,-5.498 7.298,-6.403l0 0c-0.149,-0.453 -0.506,-0.633 -1.098,-0.633 -1.22,0 -3.44,0.765 -6.909,1.491l0 0z"/>
   <path class="fil4" d="M375 32.529l0 -8.321c-19.631,-2.82 -49.536,-5.876 -86.96,-5.876 -20.938,0 -44.234,0.957 -69.402,3.446l0 0 6.946 14.736c0,0 -0.817,0.489 -2.266,1.341l0 0 5.115 1.734 67.643 -8.083 78.924 1.023z"/>
   <path class="fil5" d="M323.188 25.658l-0.155 0c-40.735,0 -87.224,5.764 -98.423,8.79l0 0 0.974 2.066c0,0 -7.734,4.622 -17.767,10.226l1.8 3.18c9.845,-3.064 80.274,-18.435 123.215,-17.923l0 0c17.067,0.203 31.259,1.123 42.168,2.156l0 0 0 -5.361c-12.376,-1.501 -28.531,-2.884 -47.061,-3.105l0 0c-1.576,-0.019 -3.156,-0.029 -4.751,-0.029z"/>
   <path class="fil6" d="M160.722 23.07c-5.708,2.4 -5.413,7.01 -5.413,7.01l0 0c0,0 15.767,35.048 15.784,35.034l0 0 1.244 2.891c-0.829,-6.078 35.432,-16.792 48.901,-22.456l0 0c5.709,-2.4 5.413,-7.01 5.413,-7.01l0 0 -0.689 -1.956 -16.215 -35.698c0.829,6.077 -35.555,16.521 -49.025,22.185l0 0z"/>
   <path class="fil7" d="M160.722 23.07c-5.708,2.4 -5.413,7.01 -5.413,7.01l0 0 5.865 13.034 0.003 -0.05c0,0 -0.295,-4.61 5.413,-7.011l0 0c13.47,-5.663 49.74,-16.423 48.911,-22.5l0 0 -5.877 -12.939c0.829,6.077 -35.432,16.792 -48.902,22.456l0 0z"/>
   <path class="fil8" d="M172.801 49.163c-5.709,2.4 -5.535,7.48 -5.535,7.48l0 0 0.951 2.109c1.701,3.773 2.872,6.366 2.876,6.362l0 0 1.244 2.891c-0.03,-0.219 -0.009,-0.444 0.054,-0.675l0 0 0.002 0.003c1.692,-6.168 35.859,-16.323 48.845,-21.784l0 0c5.709,-2.4 5.413,-7.01 5.413,-7.01l0 0 -0.689 -1.956 -4.273 -9.407c-0.977,6.146 -35.758,16.466 -48.888,21.987l0 0z"/>
  </g>
 </g>
</svg>
