<?xml version="1.0" encoding="UTF-8"?>
<!DOCTYPE svg PUBLIC "-//W3C//DTD SVG 1.1//EN" "http://www.w3.org/Graphics/SVG/1.1/DTD/svg11.dtd">
<!-- Creator: CorelDRAW 2017 -->
<svg xmlns="http://www.w3.org/2000/svg" xml:space="preserve" width="104px" height="16px" version="1.1" style="shape-rendering:geometricPrecision; text-rendering:geometricPrecision; image-rendering:optimizeQuality; fill-rule:evenodd; clip-rule:evenodd"
viewBox="0 0 134.162 20.605"
 xmlns:xlink="http://www.w3.org/1999/xlink">
 <defs>
  <style type="text/css">
   <![CDATA[
    .fil0 {fill:white;fill-rule:nonzero}
   ]]>
  </style>
 </defs>
 <g id="圖層_x0020_1">
  <metadata id="CorelCorpID_0Corel-Layer"/>
  <g id="_2831530890624">
   <path class="fil0" d="M4.023 10.174l0 10.073 -4.023 0 0 -9.27c0,-4.5 2.265,-6.735 6.765,-6.735 2.027,0 3.577,0.447 4.709,1.342 1.133,-0.865 2.683,-1.282 4.709,-1.282 4.5,0 6.736,2.236 6.706,6.735l0 9.269 -2.056 0c-1.312,-0.089 -1.967,-0.715 -1.967,-1.966l0 -8.107c-0.09,-1.639 -0.984,-2.444 -2.743,-2.444 -1.758,0 -2.652,0.805 -2.682,2.444l0 10.014 -3.993 0 0 -10.073c-0.09,-1.64 -0.984,-2.445 -2.742,-2.445 -1.758,0 -2.652,0.805 -2.683,2.445z"/>
   <path class="fil0" d="M27.237 4.48c1.282,0 1.907,0.627 1.907,1.908l0 13.859 -3.963 0 0 -15.767 2.056 0zm0.369 -4.48l-2.425 0 0 3.081 3.963 0 0 -1.163c0.028,-1.154 -0.478,-1.801 -1.538,-1.918z"/>
   <path class="fil0" d="M31.379 12.11c0.12,-5.096 2.832,-7.63 8.107,-7.63l0.566 0 0 4.114 -1.341 0c-2.205,0 -3.308,1.162 -3.308,3.457l0 8.196 -4.024 0 0 -8.137z"/>
   <path class="fil0" d="M50.989 13.78l0 -1.461c-0.924,0.387 -1.997,0.716 -3.159,0.953 -1.58,0.299 -2.385,1.044 -2.385,2.206 0.09,1.252 0.745,1.848 1.997,1.848 2.206,0 3.547,-1.311 3.547,-3.546zm-5.007 -5.186l-3.964 0c0.477,-2.921 2.533,-4.352 6.169,-4.352 4.351,0 6.557,1.431 6.646,4.352l0 5.365c0,4.351 -2.622,6.288 -6.884,6.586 -3.785,0.298 -6.408,-1.461 -6.408,-4.948 0.089,-3.785 2.831,-4.798 6.825,-5.186 1.699,-0.209 2.563,-0.715 2.563,-1.579 -0.089,-0.894 -0.924,-1.341 -2.563,-1.341 -1.401,0 -2.176,0.358 -2.384,1.103z"/>
   <path class="fil0" d="M76.371 7.312l-0.986 0 0 8.733c0,0.655 0.388,1.013 1.163,1.013l1.222 0 0 3.01c-1.281,0.119 -2.682,0.119 -4.172,-0.03 -1.49,-0.148 -2.206,-1.073 -2.177,-2.831l0 -17.207 2.312 0c0.926,0.14 1.652,1.021 1.652,1.978l0 2.502 2.953 0 0 0.865c0,1.132 -0.864,1.967 -1.967,1.967z"/>
   <path class="fil0" d="M83.462 10.65l5.931 0c-0.238,-2.086 -1.223,-3.159 -2.921,-3.159 -1.699,0 -2.712,1.073 -3.01,3.159zm3.01 9.955c-4.769,-0.149 -7.153,-2.921 -7.153,-8.286 0,-5.365 2.414,-8.046 7.213,-8.077 5.006,0 7.361,3.07 7.063,9.239l-10.193 0c0.149,2.415 1.192,3.636 3.13,3.636 0.923,0 1.787,-0.387 2.563,-1.132 0.356,-0.388 0.805,-0.567 1.341,-0.567l2.921 0c-0.865,3.339 -3.01,5.187 -6.885,5.187z"/>
   <path class="fil0" d="M65.284 12.219l-4.1 0c-1.312,0 -1.937,0.655 -1.907,1.937l0 1.162 7.915 0 0 -1.162c0.03,-1.282 -0.596,-1.937 -1.908,-1.937z"/>
   <path class="fil0" d="M99.356 10.65l5.93 0c-0.238,-2.086 -1.222,-3.159 -2.921,-3.159 -1.699,0 -2.712,1.073 -3.009,3.159zm3.009 9.955c-4.769,-0.149 -7.153,-2.921 -7.153,-8.286 0,-5.365 2.415,-8.046 7.213,-8.077 5.006,0 7.362,3.07 7.063,9.239l-10.192 0c0.148,2.415 1.192,3.636 3.129,3.636 0.924,0 1.788,-0.387 2.563,-1.132 0.357,-0.388 0.805,-0.567 1.341,-0.567l2.921 0c-0.865,3.339 -3.01,5.187 -6.885,5.187z"/>
   <path class="fil0" d="M116.892 7.468l-0.985 0 0 8.733c0,0.655 0.387,1.012 1.162,1.012l1.222 0 0 3.011c-1.281,0.119 -2.682,0.119 -4.172,-0.03 -1.491,-0.149 -2.206,-1.074 -2.176,-2.831l0 -17.227 2.057 0c1.043,0 1.907,0.954 1.907,1.998l0 2.502 2.952 0 0 0.865c0,1.133 -0.863,1.967 -1.967,1.967z"/>
   <path class="fil0" d="M124.683 4.642c0.819,-0.242 1.692,-0.34 2.773,-0.34 4.499,0 6.736,2.236 6.706,6.735l0 9.269 -2.057 0c-1.312,-0.089 -1.967,-0.715 -1.967,-1.966l0 -8.107c-0.09,-1.639 -0.983,-2.444 -2.743,-2.444 -1.758,0 -2.652,0.805 -2.681,2.444l0 10.014 -3.995 0 0 -20.247 2.312 0c0.926,0.14 1.652,1.021 1.652,1.978l0 2.664z"/>
  </g>
 </g>
</svg>
