<?xml version="1.0" encoding="UTF-8"?>
<!DOCTYPE svg PUBLIC "-//W3C//DTD SVG 1.1//EN" "http://www.w3.org/Graphics/SVG/1.1/DTD/svg11.dtd">
<!-- Creator: CorelDRAW 2017 -->
<svg xmlns="http://www.w3.org/2000/svg" xml:space="preserve" width="153px" height="23px" version="1.1" style="shape-rendering:geometricPrecision; text-rendering:geometricPrecision; image-rendering:optimizeQuality; fill-rule:evenodd; clip-rule:evenodd"
viewBox="0 0 71.225 10.939"
 xmlns:xlink="http://www.w3.org/1999/xlink">
 <defs>
  <style type="text/css">
   <![CDATA[
    .fil0 {fill:#006CA6;fill-rule:nonzero}
   ]]>
  </style>
 </defs>
 <g id="圖層_x0020_1">
  <metadata id="CorelCorpID_0Corel-Layer"/>
  <g id="_2831013039376">
   <path class="fil0" d="M2.136 5.401l0 5.348 -2.136 0 0 -4.921c0,-2.389 1.202,-3.576 3.592,-3.576 1.076,0 1.899,0.238 2.5,0.713 0.601,-0.46 1.424,-0.681 2.499,-0.681 2.39,0 3.576,1.187 3.561,3.576l0 4.92 -1.092 0c-0.697,-0.047 -1.044,-0.379 -1.044,-1.044l0 -4.304c-0.048,-0.869 -0.523,-1.297 -1.456,-1.297 -0.934,0 -1.408,0.428 -1.424,1.297l0 5.317 -2.12 0 0 -5.348c-0.048,-0.87 -0.523,-1.298 -1.456,-1.298 -0.933,0 -1.408,0.428 -1.424,1.298z"/>
   <path class="fil0" d="M14.46 2.379c0.68,0 1.012,0.332 1.012,1.012l0 7.358 -2.104 0 0 -8.37 1.092 0zm0.196 -2.379l-1.288 0 0 1.635 2.104 0 0 -0.617c0.015,-0.613 -0.253,-0.956 -0.816,-1.018z"/>
   <path class="fil0" d="M16.659 6.429c0.063,-2.705 1.503,-4.05 4.304,-4.05l0.3 0 0 2.184 -0.712 0c-1.171,0 -1.756,0.617 -1.756,1.835l0 4.351 -2.136 0 0 -4.32z"/>
   <path class="fil0" d="M27.069 7.316l0 -0.776c-0.49,0.206 -1.06,0.38 -1.677,0.506 -0.839,0.159 -1.266,0.554 -1.266,1.171 0.048,0.665 0.396,0.981 1.061,0.981 1.17,0 1.882,-0.696 1.882,-1.882zm-2.658 -2.753l-2.104 0c0.253,-1.551 1.345,-2.311 3.275,-2.311 2.31,0 3.481,0.76 3.528,2.311l0 2.848c0,2.31 -1.392,3.338 -3.655,3.496 -2.009,0.159 -3.401,-0.775 -3.401,-2.626 0.047,-2.01 1.503,-2.548 3.623,-2.753 0.902,-0.112 1.36,-0.38 1.36,-0.839 -0.047,-0.475 -0.49,-0.712 -1.36,-0.712 -0.744,0 -1.155,0.19 -1.266,0.586z"/>
   <path class="fil0" d="M40.544 3.882l-0.523 0 0 4.636c0,0.348 0.206,0.538 0.617,0.538l0.649 0 0 1.598c-0.68,0.063 -1.424,0.063 -2.215,-0.016 -0.791,-0.079 -1.171,-0.57 -1.155,-1.503l0 -9.135 1.227 0c0.492,0.074 0.877,0.542 0.877,1.05l0 1.329 1.567 0 0 0.459c0,0.601 -0.458,1.044 -1.044,1.044z"/>
   <path class="fil0" d="M44.309 5.654l3.148 0c-0.126,-1.107 -0.648,-1.677 -1.55,-1.677 -0.902,0 -1.44,0.57 -1.598,1.677zm1.598 5.285c-2.532,-0.079 -3.798,-1.551 -3.798,-4.399 0,-2.848 1.282,-4.272 3.83,-4.288 2.657,0 3.907,1.63 3.749,4.905l-5.411 0c0.079,1.282 0.633,1.93 1.662,1.93 0.49,0 0.949,-0.205 1.36,-0.601 0.19,-0.205 0.428,-0.3 0.712,-0.3l1.551 0c-0.459,1.772 -1.598,2.753 -3.655,2.753z"/>
   <path class="fil0" d="M34.659 6.487l-2.177 0c-0.697,0 -1.029,0.348 -1.013,1.028l0 0.617 4.202 0 0 -0.617c0.016,-0.68 -0.316,-1.028 -1.012,-1.028z"/>
   <path class="fil0" d="M52.747 5.654l3.148 0c-0.126,-1.107 -0.649,-1.677 -1.551,-1.677 -0.902,0 -1.439,0.57 -1.597,1.677zm1.597 5.285c-2.531,-0.079 -3.797,-1.551 -3.797,-4.399 0,-2.848 1.282,-4.272 3.829,-4.288 2.658,0 3.908,1.63 3.75,4.905l-5.411 0c0.079,1.282 0.633,1.93 1.661,1.93 0.491,0 0.949,-0.205 1.361,-0.601 0.189,-0.205 0.427,-0.3 0.712,-0.3l1.55 0c-0.458,1.772 -1.597,2.753 -3.655,2.753z"/>
   <path class="fil0" d="M62.056 3.965l-0.523 0 0 4.636c0,0.348 0.206,0.537 0.618,0.537l0.648 0 0 1.599c-0.68,0.063 -1.424,0.063 -2.215,-0.016 -0.791,-0.079 -1.171,-0.57 -1.155,-1.503l0 -9.146 1.092 0c0.554,0 1.012,0.507 1.012,1.061l0 1.328 1.568 0 0 0.459c0,0.602 -0.459,1.045 -1.045,1.045z"/>
   <path class="fil0" d="M66.193 2.464c0.434,-0.128 0.898,-0.18 1.472,-0.18 2.388,0 3.576,1.187 3.56,3.576l0 4.92 -1.092 0c-0.697,-0.047 -1.045,-0.379 -1.045,-1.044l0 -4.304c-0.047,-0.869 -0.522,-1.297 -1.455,-1.297 -0.934,0 -1.409,0.428 -1.424,1.297l0 5.317 -2.121 0 0 -10.749 1.228 0c0.491,0.074 0.877,0.542 0.877,1.05l0 1.414z"/>
  </g>
 </g>
</svg>
