<?xml version="1.0" encoding="UTF-8"?>
<!DOCTYPE svg PUBLIC "-//W3C//DTD SVG 1.1//EN" "http://www.w3.org/Graphics/SVG/1.1/DTD/svg11.dtd">
<!-- Creator: CorelDRAW 2017 -->
<svg xmlns="http://www.w3.org/2000/svg" xml:space="preserve" width="35px" height="116px" version="1.1" style="shape-rendering:geometricPrecision; text-rendering:geometricPrecision; image-rendering:optimizeQuality; fill-rule:evenodd; clip-rule:evenodd"
viewBox="0 0 4.016 13.309"
 xmlns:xlink="http://www.w3.org/1999/xlink">
 <defs>
  <style type="text/css">
   <![CDATA[
    .fil0 {fill:#FF0066}
    .fil2 {fill:white;fill-rule:nonzero}
    .fil1 {fill:white;fill-rule:nonzero}
   ]]>
  </style>
 </defs>
 <g id="圖層_x0020_1">
  <metadata id="CorelCorpID_0Corel-Layer"/>
  <g id="_2831013072912">
   <path class="fil0" d="M0 11.301l0 -9.293c0,-1.104 0.904,-2.008 2.008,-2.008l2.008 0 0 13.309 -2.008 0c-1.104,0 -2.008,-0.903 -2.008,-2.008z"/>
   <path class="fil1" d="M1.688 4.278c-0.096,0.257 -0.257,0.509 -0.427,0.67 0.03,0.038 0.075,0.126 0.091,0.164 0.052,-0.052 0.105,-0.115 0.154,-0.182l0 0.945 0.155 0 0 -1.183c0.069,-0.117 0.128,-0.241 0.179,-0.365l-0.152 -0.049zm0.313 1.048c-0.067,0.134 -0.168,0.281 -0.263,0.381 0.037,0.019 0.098,0.065 0.126,0.091 0.095,-0.11 0.207,-0.278 0.284,-0.427l-0.147 -0.045zm0.038 -0.83l0.59 0 0 0.282 -0.59 0 0 -0.282zm0.847 0.76l0 -0.149 -0.476 0 0 -0.184 0.381 0 0 -0.57 -0.904 0 0 0.57 0.36 0 0 0.184 -0.482 0 0 0.149 0.482 0 0 0.624 0.163 0 0 -0.624 0.476 0zm-0.394 0.136c0.102,0.121 0.221,0.287 0.273,0.394l0.131 -0.081c-0.057,-0.103 -0.174,-0.26 -0.281,-0.381l-0.123 0.068zm-0.175 1.746l-0.449 0 0 -0.207 0.449 0 0 0.207zm0.247 -0.506l0 -0.131 -0.399 0 0 -0.185 -0.152 0 0 0.185 -0.386 0 0 0.131 0.386 0 0 0.175 -0.289 0 0 0.457 0.744 0 0 -0.457 -0.303 0 0 -0.175 0.399 0zm-1.034 0.768l0 -1.147 1.118 0 0 1.147 -1.118 0zm-0.162 -1.298l0 1.529 0.162 0 0 -0.079 1.118 0 0 0.079 0.17 0 0 -1.529 -1.45 0zm0.801 2.656l0 -0.231 0.444 0 0 0.231 -0.444 0zm-0.6 0l0 -0.231 0.432 0 0 0.231 -0.432 0zm0.432 -0.6l0 0.218 -0.432 0 0 -0.218 0.432 0zm0.612 0l0 0.218 -0.444 0 0 -0.218 0.444 0zm-0.444 -0.156l0 -0.229 -0.168 0 0 0.229 -0.593 0 0 1.008 0.161 0 0 -0.097 0.432 0 0 0.464 0.168 0 0 -0.464 0.444 0 0 0.088 0.168 0 0 -0.999 -0.612 0zm-0.446 1.753c-0.018,-0.061 -0.058,-0.158 -0.093,-0.229l-0.136 0.04c0.031,0.075 0.07,0.175 0.084,0.238l0.145 -0.049zm0.178 0.054l-0.603 0 0 0.13 0.603 0 0 -0.13zm-0.049 0.227l-0.512 0 0 0.126 0.512 0 0 -0.126zm-0.142 0.608l0 0.253 -0.227 0 0 -0.253 0.227 0zm0.14 -0.13l-0.505 0 0 0.588 0.138 0 0 -0.074 0.367 0 0 -0.514zm-0.509 -0.115l0.513 0 0 -0.126 -0.513 0 0 0.126zm0.81 0.342c0.004,-0.036 0.006,-0.075 0.006,-0.108l0.491 0 0 0.108 -0.497 0zm0.497 -0.327l0 0.107 -0.491 0 0 -0.107 0.491 0zm0.152 -0.124l-0.79 0 0 0.315c0,0.136 -0.011,0.308 -0.114,0.434 0.031,0.017 0.091,0.075 0.114,0.105 0.07,-0.081 0.108,-0.186 0.125,-0.292l0.513 0 0 0.115c0,0.019 -0.007,0.026 -0.03,0.026 -0.021,0.002 -0.092,0.002 -0.166,-0.001 0.019,0.036 0.039,0.092 0.046,0.131 0.108,0.002 0.187,0 0.236,-0.023 0.05,-0.021 0.066,-0.059 0.066,-0.131l0 -0.679zm-0.327 -0.211l0 -0.098 0.367 0 0 -0.116 -0.367 0 0 -0.089 0.401 0 0 -0.119 -0.401 0 0 -0.135 -0.157 0 0 0.135 -0.376 0 0 0.119 0.376 0 0 0.089 -0.334 0 0 0.116 0.334 0 0 0.098 -0.399 0 0 0.122 0.976 0 0 -0.122 -0.42 0z"/>
   <path class="fil2" d="M2.209 1.248l-1.004 0.286 0 0.592c0,0.311 0.096,0.608 0.276,0.86 0.177,0.246 0.421,0.429 0.706,0.529l0.022 0.008 0.022 -0.008c0.285,-0.1 0.529,-0.283 0.706,-0.529 0.181,-0.252 0.276,-0.549 0.276,-0.86l0 -0.592 -1.004 -0.286zm0 1.844c-0.159,-0.077 -0.298,-0.194 -0.403,-0.34 -0.108,-0.149 -0.174,-0.321 -0.194,-0.502l0.597 -0.17 0.597 0.17c-0.02,0.181 -0.086,0.353 -0.194,0.502 -0.105,0.146 -0.243,0.263 -0.403,0.34zm0.604 -0.979l-0.604 -0.172 -0.604 0.172 0 -0.277 0.604 -0.172 0.604 0.172 0 0.277zm-1.475 0.013l0 -0.491 0.804 -0.229 0 0.139 -0.67 0.19 0 0.391c0,0.255 0.078,0.498 0.226,0.704 0.116,0.161 0.269,0.291 0.444,0.378l0 0.147c-0.484,-0.212 -0.804,-0.694 -0.804,-1.229zm1.742 0c0,0.535 -0.32,1.017 -0.804,1.229l0 -0.147c0.175,-0.087 0.329,-0.217 0.444,-0.378 0.148,-0.206 0.227,-0.449 0.227,-0.704l0 -0.391 -0.671 -0.19 0 -0.139 0.804 0.229 0 0.491z"/>
  </g>
 </g>
</svg>
